<svg xmlns="http://www.w3.org/2000/svg" version="1.1" xmlns:xlink="http://www.w3.org/1999/xlink" xmlns:svgjs="http://svgjs.dev/svgjs" width="128" height="128" viewBox="0 0 128 128"><g transform="matrix(0.8046875,0,0,0.8046875,12.333870967741937,12.333870967741937)"><svg viewBox="0 0 155 155" data-background-color="#7c4e29" preserveAspectRatio="xMidYMid meet" height="128" width="128" xmlns="http://www.w3.org/2000/svg" xmlns:xlink="http://www.w3.org/1999/xlink"><g id="tight-bounds" transform="matrix(1,0,0,1,0.25,0.25)"><svg viewBox="0 0 154.5 154.5" height="154.5" width="154.5"><g><svg></svg></g><g><svg viewBox="0 0 154.5 154.5" height="154.5" width="154.5"><g transform="matrix(1,0,0,1,29.509500000000003,51.68636255115962)"><svg viewBox="0 0 95.481 51.127274897680756" height="51.127274897680756" width="95.481"><g><svg viewBox="0 0 95.481 51.127274897680756" height="51.127274897680756" width="95.481"><g><svg viewBox="0 0 95.481 51.127274897680756" height="51.127274897680756" width="95.481"><g id="textblocktransform"><svg viewBox="0 0 95.481 51.127274897680756" height="51.127274897680756" width="95.481" id="textblock"><g><svg viewBox="0 0 95.481 51.127274897680756" height="51.127274897680756" width="95.481"><g transform="matrix(1,0,0,1,0,0)"><svg width="95.481" viewBox="0.3500000000000001 -37.25 74.30000000000001 40.25" height="51.127274897680756" data-palette-color="#e6b17e"><path d="M35.3-29.95L35.3-4.75Q35.3-2.55 34-1.28 32.7 0 30.2 0L30.2 0Q29.55 0 28.9-0.15 28.25-0.3 27.53-0.7 26.8-1.1 26.25-1.45 25.7-1.8 24.88-2.53 24.05-3.25 23.58-3.68 23.1-4.1 22.1-5.05 21.1-6 20.65-6.45L20.65-6.45 11.5-15.1 11.5-4.25Q11.5-1.8 10.58-0.9 9.65 0 7.65 0L7.65 0Q5.45 0 4.4-1 3.35-2 3.35-4.35L3.35-4.35 3.35-28.5Q3.35-31.35 4.8-32.8 6.25-34.25 8.95-34.25L8.95-34.25Q10.8-34.25 11.93-33.68 13.05-33.1 14.6-31.6L14.6-31.6 27.25-19 27.25-29.9Q27.25-32.05 28.33-33.13 29.4-34.2 31.25-34.2L31.25-34.2Q33.4-34.2 34.35-33.2 35.3-32.2 35.3-29.95L35.3-29.95ZM60.1-22.4L60.1-22.4Q60.1-24.25 59.75-25.33 59.4-26.4 58.52-26.95 57.65-27.5 56.62-27.68 55.6-27.85 53.8-27.85L53.8-27.85 53.8-16.85Q55.2-16.85 56.27-17.1 57.35-17.35 58.25-17.95 59.15-18.55 59.62-19.68 60.1-20.8 60.1-22.4ZM53.8-10.3L53.8-7.5Q53.8-3.45 52.3-1.73 50.8 0 47.7 0L47.7 0Q44.6 0 43.15-1.58 41.7-3.15 41.7-7.15L41.7-7.15 41.7-28.25Q41.7-31.3 43.35-32.77 45-34.25 47.7-34.25L47.7-34.25 56.6-34.25Q59.85-34.25 62.6-33.38 65.35-32.5 67.37-30.93 69.4-29.35 70.52-26.98 71.65-24.6 71.65-21.7L71.65-21.7Q71.65-18.15 69.6-15.53 67.55-12.9 64.2-11.6 60.85-10.3 56.65-10.3L56.65-10.3 53.8-10.3Z" opacity="1" transform="matrix(1,0,0,1,0,0)" fill="#e6b17e" class="undefined-text-0" data-fill-palette-color="primary" id="text-0"></path></svg></g></svg></g></svg></g></svg></g></svg></g></svg></g><g><path d="M0 154.5v-154.5h154.5v154.5zM150.477 150.477v-146.454h-146.454v146.454z" fill="#e6b17e" fill-rule="nonzero" stroke="none" stroke-width="1" stroke-linecap="butt" stroke-linejoin="miter" stroke-miterlimit="10" stroke-dasharray="" stroke-dashoffset="0" font-family="none" font-weight="none" font-size="none" text-anchor="none" style="mix-blend-mode: normal" data-fill-palette-color="tertiary"></path></g></svg></g><defs><mask><rect width="154.5" height="154.5" fill="white"></rect><g transform="matrix(1,0,0,1,29.509500000000003,51.68636255115962)" id="clone"><svg viewBox="0 0 95.481 51.127274897680756" height="51.127274897680756" width="95.481"><g><svg viewBox="0 0 95.481 51.127274897680756" height="51.127274897680756" width="95.481"><g><svg viewBox="0 0 95.481 51.127274897680756" height="51.127274897680756" width="95.481"><g id="SvgjsG1067"><svg viewBox="0 0 95.481 51.127274897680756" height="51.127274897680756" width="95.481" id="SvgjsSvg1066"><g><svg viewBox="0 0 95.481 51.127274897680756" height="51.127274897680756" width="95.481"><g transform="matrix(1,0,0,1,0,0)"><svg width="95.481" viewBox="0.3500000000000001 -37.25 74.30000000000001 40.25" height="51.127274897680756" data-palette-color="#e6b17e"><path d="M35.3-29.95L35.3-4.75Q35.3-2.55 34-1.28 32.7 0 30.2 0L30.2 0Q29.55 0 28.9-0.15 28.25-0.3 27.53-0.7 26.8-1.1 26.25-1.45 25.7-1.8 24.88-2.53 24.05-3.25 23.58-3.68 23.1-4.1 22.1-5.05 21.1-6 20.65-6.45L20.65-6.45 11.5-15.1 11.5-4.25Q11.5-1.8 10.58-0.9 9.65 0 7.65 0L7.65 0Q5.45 0 4.4-1 3.35-2 3.35-4.35L3.35-4.35 3.35-28.5Q3.35-31.35 4.8-32.8 6.25-34.25 8.95-34.25L8.95-34.25Q10.8-34.25 11.93-33.68 13.05-33.1 14.6-31.6L14.6-31.6 27.25-19 27.25-29.9Q27.25-32.05 28.33-33.13 29.4-34.2 31.25-34.2L31.25-34.2Q33.4-34.2 34.35-33.2 35.3-32.2 35.3-29.95L35.3-29.95ZM60.1-22.4L60.1-22.4Q60.1-24.25 59.75-25.33 59.4-26.4 58.52-26.95 57.65-27.5 56.62-27.68 55.6-27.85 53.8-27.85L53.8-27.85 53.8-16.85Q55.2-16.85 56.27-17.1 57.35-17.35 58.25-17.95 59.15-18.55 59.62-19.68 60.1-20.8 60.1-22.4ZM53.8-10.3L53.8-7.5Q53.8-3.45 52.3-1.73 50.8 0 47.7 0L47.7 0Q44.6 0 43.15-1.58 41.7-3.15 41.7-7.15L41.7-7.15 41.7-28.25Q41.7-31.3 43.35-32.77 45-34.25 47.7-34.25L47.7-34.25 56.6-34.25Q59.85-34.25 62.6-33.38 65.35-32.5 67.37-30.93 69.4-29.35 70.52-26.98 71.65-24.6 71.65-21.7L71.65-21.7Q71.65-18.15 69.6-15.53 67.55-12.9 64.2-11.6 60.85-10.3 56.65-10.3L56.65-10.3 53.8-10.3Z" opacity="1" transform="matrix(1,0,0,1,0,0)" fill="#e6b17e" class="undefined-text-0" data-fill-palette-color="primary" id="SvgjsPath1065" stroke-width="5" stroke="black" stroke-linejoin="round"></path></svg></g></svg></g></svg></g></svg></g></svg></g></svg></g></mask></defs></svg><rect width="154.5" height="154.5" fill="none" stroke="none" visibility="hidden"></rect></g></svg></g></svg>